<svg width="37" height="37" viewBox="0 0 37 37" fill="none" xmlns="http://www.w3.org/2000/svg">
<path d="M34.9647 2.03529C33.6066 0.677196 31.9726 -0.00123295 30.0626 1.68206e-06H6.93739C5.02618 1.68206e-06 3.39215 0.678431 2.03529 2.03529C0.677196 3.39338 -0.00123295 5.02741 1.68206e-06 6.93739V30.0626C1.68206e-06 31.9738 0.678431 33.6079 2.03529 34.9647C3.39338 36.3228 5.02741 37.0012 6.93739 37H12.334C12.6858 37 12.9507 36.9877 13.1284 36.963C13.3355 36.922 13.5224 36.8116 13.6581 36.65C13.8346 36.4648 13.9229 36.1963 13.9229 35.8444L13.91 34.2054C13.9026 33.1609 13.8988 32.3337 13.8988 31.7238L13.3433 31.8201C12.9914 31.8843 12.5463 31.9127 12.008 31.9053C11.4463 31.8946 10.8864 31.8382 10.3339 31.7368C9.74512 31.63 9.19102 31.3822 8.71896 31.0145C8.22346 30.6398 7.85394 30.123 7.65964 29.533L7.41889 28.9774C7.21519 28.5395 6.96031 28.1274 6.65959 27.7495C6.3139 27.3001 5.9645 26.9952 5.61139 26.8347L5.44472 26.7143C5.32898 26.6305 5.22333 26.5335 5.12989 26.4254C5.04063 26.325 4.96753 26.2112 4.91321 26.0883C4.86506 25.9748 4.90519 25.8822 5.03359 25.8106C5.16199 25.7365 5.39533 25.7001 5.73362 25.7013L6.21513 25.7754C6.53613 25.8383 6.93306 26.0303 7.40593 26.3513C7.88384 26.6771 8.28306 27.1055 8.5745 27.6051C8.94489 28.2619 9.3906 28.7638 9.91161 29.1107C10.4339 29.4564 10.9598 29.6293 11.4895 29.6293C12.0191 29.6293 12.4772 29.5891 12.8636 29.5089C13.2379 29.4313 13.6016 29.3095 13.947 29.1459C14.0914 28.0705 14.4847 27.2433 15.1267 26.6643C14.2941 26.582 13.4689 26.4371 12.658 26.2309C11.8668 26.0139 11.1059 25.6984 10.3931 25.292C9.64723 24.8859 8.98842 24.3372 8.45413 23.6771C7.94052 23.0351 7.5189 22.1925 7.18925 21.1492C6.86084 20.1047 6.69663 18.8997 6.69663 17.5342C6.69663 15.5921 7.33062 13.9377 8.59858 12.571C8.00596 11.1104 8.06213 9.47332 8.76711 7.65964C9.2338 7.51396 9.92457 7.62199 10.8394 7.98373C11.7543 8.34548 12.4247 8.65414 12.8506 8.90971C13.2766 9.16898 13.618 9.38627 13.8748 9.56159C15.3802 9.14184 16.9362 8.93121 18.4991 8.93563C20.0893 8.93563 21.6313 9.14429 23.1252 9.56159L24.0401 8.98378C24.7438 8.5613 25.4861 8.2066 26.2569 7.92447C27.1075 7.60347 27.7582 7.51519 28.2088 7.65964C28.9311 9.47455 28.9947 11.1123 28.3996 12.5729C29.6688 13.9371 30.3034 15.5915 30.3034 17.5361C30.3034 18.9016 30.1385 20.1096 29.8089 21.1603C29.4805 22.2122 29.0552 23.0555 28.5329 23.6901C27.9877 24.3402 27.3264 24.8834 26.5828 25.292C25.805 25.7254 25.05 26.0383 24.3179 26.2309C23.5071 26.4378 22.6819 26.5833 21.8492 26.6662C22.6826 27.3884 23.0999 28.528 23.1012 30.0848V35.8444C23.1012 36.116 23.1413 36.3364 23.2215 36.5055C23.259 36.5867 23.3124 36.6596 23.3786 36.7197C23.4447 36.7798 23.5223 36.826 23.6067 36.8555C23.7833 36.9197 23.9401 36.9593 24.0771 36.9741C24.2142 36.9914 24.4105 36.9994 24.6661 36.9982H30.0626C31.9738 36.9982 33.6079 36.3197 34.9647 34.9629C36.3216 33.606 37 31.972 37 30.0608V6.93739C37 5.02618 36.3228 3.39215 34.9647 2.03529Z" fill="black"/>
</svg>
