<svg width="37" height="37" viewBox="0 0 37 37" fill="none" xmlns="http://www.w3.org/2000/svg">
<path d="M33.3 32.375H29.6V12.1406L18.5 20.8125L7.4 12.1406V32.375H3.7V4.625H5.92L18.5 14.4531L31.08 4.625H33.3M33.3 0H3.7C1.6465 0 0 2.05812 0 4.625V32.375C0 33.6016 0.38982 34.778 1.0837 35.6454C1.77759 36.5127 2.7187 37 3.7 37H33.3C34.2813 37 35.2224 36.5127 35.9163 35.6454C36.6102 34.778 37 33.6016 37 32.375V4.625C37 3.39837 36.6102 2.22199 35.9163 1.35463C35.2224 0.487275 34.2813 0 33.3 0Z" fill="black"/>
</svg>
