<svg width="792" height="794" viewBox="0 0 792 794" fill="none" xmlns="http://www.w3.org/2000/svg">
<path d="M291.983 454.364C216.401 498.669 258.962 607.905 283.911 612.488C303.127 616.018 366.299 613.994 396.916 612.488L633.933 429.92L495.244 410.059C452.684 410.059 352.448 418.92 291.983 454.364Z" fill="white"/>
<path d="M396.916 612.488C395.823 612.545 398.1 612.43 396.916 612.488ZM396.916 612.488C366.299 613.994 303.127 616.018 283.911 612.488C258.962 607.905 216.401 498.669 291.983 454.364C352.448 418.92 452.684 410.059 495.244 410.059L633.933 429.92L396.916 612.488Z" stroke="black" stroke-width="2.91102"/>
<path d="M312.527 469.36C364.774 458.971 407.187 490.917 421.863 508.189C424.314 504.62 426.965 501.093 429.827 497.624C425.316 476.999 337.476 454.846 312.527 469.36Z" fill="#000001"/>
<path d="M391.618 614.748C393.473 614.664 395.243 614.58 396.916 614.498L590.504 465.382C581.976 462.38 559.995 453.142 540.3 440.21C406.679 456.693 385.504 563.437 391.618 614.748Z" fill="#0E1729"/>
<path d="M612.65 614.497C708.777 582.414 633.93 437.276 633.93 431.929L597.973 426.78C414.817 438.549 387.619 556.829 396.914 614.497L427.823 879.564H507.474L514.321 614.497H612.65Z" fill="white" stroke="black" stroke-width="2.91102"/>
<path d="M495.243 559.498C506.984 571.721 512.855 601.257 514.323 614.498H525.329C522.394 599.475 512.268 567.443 495.243 559.498Z" fill="#000001"/>
<rect y="614.21" width="792" height="3.1073" fill="black"/>
<path d="M510.138 151.313C506.273 146.192 496.224 130.463 486.948 108.517C489.056 105.956 493.061 98.2014 492.218 87.6671C481.255 85.9114 474.612 61.3313 472.661 49.2607C487.218 40.8543 474.814 18.4292 479.569 17.4388C484.839 16.3409 498.543 21.8275 498.543 36.0927C498.543 50.358 522.021 43.6244 528.058 40.4821C542.815 32.8008 537.545 51.4564 531.22 69.0131C527.847 75.1581 539.653 86.9361 545.977 92.057C547.663 109.614 532.625 136.682 524.896 148.021C525.95 180.94 526.16 246.78 518.571 246.78C513.511 236.246 510.841 178.746 510.138 151.313Z" fill="white" stroke="black" stroke-width="1.94068"/>
<path d="M500.649 51.4492C498.892 53.2781 496.432 58.4721 500.649 64.6171" stroke="#241715" stroke-width="0.970341"/>
<path d="M509.081 67.9171C508.378 71.9406 505.286 78.0125 498.54 70.1118" stroke="#241715" stroke-width="0.970341"/>
<path d="M532.272 54.7442C533.677 50.7207 535.434 42.8931 531.217 43.771" stroke="#241715" stroke-width="0.970341"/>
<path d="M491.092 99.7356C492.021 96.3852 492.587 92.2936 492.216 87.6655C498.058 90.9579 508.026 92.0553 529.109 76.6917C529.951 88.1039 504.115 96.8094 491.092 99.7356Z" fill="black"/>
<path d="M544.922 17.4378C552.301 36.0923 535.435 61.3308 531.218 69.0121C537.543 51.4554 541.759 32.7998 528.056 40.4811C522.113 43.8123 498.541 50.357 498.541 36.0918C498.541 21.8265 484.838 16.3399 479.567 17.4378C474.812 18.4283 487.217 40.8533 472.659 49.2597C471.081 50.1711 469.186 50.9177 466.918 51.4543C472.188 43.773 470.08 44.8704 465.864 26.2158C461.647 7.56127 480.621 3.17252 498.541 0.977863C516.461 -1.21679 537.543 -1.21679 544.922 17.4378Z" fill="black"/>
<path d="M644.007 135.95C630.514 117.515 573.03 99.0071 545.975 92.0574C547.661 109.615 532.623 136.682 524.893 148.021C525.947 180.941 526.158 246.78 518.568 246.78C513.509 236.246 510.838 178.746 510.136 151.313C506.271 146.192 496.221 130.464 486.945 108.517C484.837 115.101 427.915 160.092 418.428 174.357C408.941 188.622 405.779 325.788 405.779 337.859C405.779 349.929 401.562 432.229 436.348 432.229C464.176 432.229 577.95 436.252 635.574 437.715C644.007 344.808 657.5 154.386 644.007 135.95Z" fill="black"/>
<path d="M405.782 337.852C463.406 325.415 578.656 311.735 578.656 356.506C578.656 401.277 525.247 426.579 498.543 433.634M578.656 101.823C571.628 105.149 556.73 120.801 553.357 156.793C549.141 201.783 535.606 217.146 524.641 217.146M513.881 219.34C504.903 224.461 485.261 228.339 478.515 202.881C470.082 171.058 452.488 153.501 432.824 158.987M610.279 113.998C608.171 113.069 574.439 137.041 571.277 191.907C568.115 246.774 534.383 349.922 464.812 295.056C438.457 267.622 413.064 250.431 408.8 252.26M486.948 433.302C496.435 423.797 512.879 401.716 502.76 389.426C492.64 377.136 437.289 393.815 410.878 403.691M649.069 164.474C626.301 179.105 584.348 225.705 598.684 295.056C611.333 334.56 634.449 330.536 644.425 323.587M640.611 377.356C626.987 377.542 601.003 389.711 606.063 436.891" stroke="white" stroke-width="0.970341"/>
<path d="M518.569 432.219V247.868" stroke="#027269" stroke-width="0.970341"/>
<path d="M519.201 430.423L514.021 390.326C502.24 392.55 477.706 394.706 458.754 396.576C438.914 398.533 433.914 409.378 447.232 412.841C440.265 411.936 432.466 421.934 443.581 426.411C435.428 429.426 451.556 432.79 459.461 432.806C454.937 433.518 447.091 434.831 448.157 439.821C449.224 444.812 495.964 435.636 519.201 430.423Z" fill="white"/>
<path d="M519.202 430.424L514.021 390.327C511.281 390.844 507.85 391.358 503.96 391.865L492.174 436.008C502.077 434.134 511.824 432.079 519.202 430.424Z" fill="black"/>
<path d="M459.784 433.101L476.174 428.299" stroke="black" stroke-width="0.970341"/>
<path d="M447.337 422.387L476.072 418.755" stroke="black" stroke-width="0.970341"/>
<path d="M447.232 412.84L476.581 407.556" stroke="black" stroke-width="0.970341"/>
<path d="M675.281 395.212C677.832 353.187 680.616 141.405 635.078 129.988C582.441 116.792 583.131 318.762 605.982 364.839L498.498 376.213L508.583 446.025C560.84 442.225 671.06 464.752 675.281 395.212Z" fill="black"/>
<path d="M635.078 129.988C582.441 116.792 583.13 318.762 605.982 364.838L498.498 376.213" stroke="white" stroke-width="0.970341"/>
<path d="M657.004 160.423C640.739 162.264 604.591 172.039 595.724 194.953M667.123 197.294C652.465 203.968 618.149 226.437 613.82 249.501C609.491 272.565 655.336 264.777 673.87 260.501M674.995 300.883C659.589 308.37 605.586 313.34 593.476 296.201M675.556 372.869C659.779 362.902 614.357 343.006 602.471 350.63M559.743 369.358C552.997 384.574 563.563 440.527 593.476 446.611" stroke="white" stroke-width="0.970341"/>
<path d="M214.134 289.453H395.16C398.386 289.453 401.276 291.449 402.419 294.465L456.24 436.49C457.383 439.506 460.273 441.501 463.499 441.501H604.007C606.703 441.501 608.889 443.687 608.889 446.384C608.889 449.08 606.703 451.266 604.007 451.266H269.859C266.638 451.266 263.752 449.277 262.605 446.267L206.879 299.98C204.944 294.899 208.697 289.453 214.134 289.453Z" fill="white" stroke="black" stroke-width="2.91102"/>
<path d="M401.608 292.183L461.173 441.501H457.256C454.082 441.501 451.228 439.569 450.049 436.622L393.555 295.399C392.416 292.551 394.514 289.453 397.581 289.453C399.355 289.453 400.951 290.535 401.608 292.183Z" fill="black"/>
<path d="M262.605 446.267L206.879 299.98C204.944 294.899 208.697 289.453 214.134 289.453H228.126C229.322 289.453 230.498 289.73 231.577 290.247C236.524 292.617 244.768 296.34 258.426 303.524C304.285 327.645 310.078 378.903 300.423 404.029C297.433 411.812 310.689 419.695 330.481 426.79C339.555 430.043 337.213 451.266 327.573 451.266H269.859C266.638 451.266 263.752 449.277 262.605 446.267Z" fill="black"/>
<ellipse cx="11.5747" cy="13.7199" rx="11.5747" ry="13.7199" transform="matrix(-0.931518 0.363695 0.338957 0.940802 331.189 339.706)" fill="black"/>
<rect x="388.158" y="616.871" width="143.762" height="277.069" fill="white"/>
</svg>
